<svg xmlns="http://www.w3.org/2000/svg" viewBox="0 0 1024 1024"><defs><style>.cls-1{fill:#fff;}.cls-2{fill:#39b54a;}.cls-3{fill:red;}.cls-4{fill:#fa0;}.cls-5{fill:#ffc800;}.cls-6{fill:#d9e021;}.cls-7{fill:#8cc63f;}</style></defs><title>wr-logo</title><g id="Layer_1" data-name="Layer 1"><rect x="0.45" y="0.45" width="1023.11" height="1023.11"/><path class="cls-1" d="M1023.11.89V1023.11H.89V.89H1023.11M1024,0H0V1024H1024V0Z"/><path class="cls-2" d="M180.07,605.66V547.31H238v58.35Zm0,63.85V611.16H238v58.35Zm63.85,63.85V675.43h58.35v57.93Zm64.27-128.12V547.31h57.93v57.93Zm0,64.27V611.16h57.93v58.35ZM372,733.36V675.43h58.35v57.93Zm64.27-320.1V354.91h58.36v58.35Zm0,63.85V418.76h58.36v58.35Zm0,64.28V483h58.36v58.36Zm0,63.85V546.89h58.36v58.35Zm0,64.27V611.16h58.36v58.35Z"/><path class="cls-2" d="M542.45,349.41V290.64h57.93v58.77Zm0,63.85V354.91h57.93v58.35Zm0,63.85V419.18h57.93v57.93Zm0,64.28V483h57.93v58.36Zm0,64.27V547.31h57.93v58.35Zm0,63.85V611.16h57.93v58.35Zm0,63.85V675.43h57.93v57.93ZM606.3,349V290.64h58.35V349Zm0,192.4V483h58.35v58.36ZM670.57,349V290.64H728.5V349Zm0,192.4V483H728.5v58.36Zm0,63.85V546.89H728.5v58.35ZM734.42,349V290.64h58.35V349Zm0,192.4V483h58.35v58.36Zm0,128.12V611.16h58.35v58.35Zm64.27-256.25V354.91h58.36v58.35Zm0,63.85V418.76h58.36v58.35Zm0,256.25V675.43h58.36v57.93Z"/></g><g id="Layer_2" data-name="Layer 2"><rect class="cls-3" x="107.07" y="191.64" width="57.93" height="58.78"/><rect class="cls-4" x="143.07" y="296.91" width="57.93" height="58.35"/><rect class="cls-5" x="172.07" y="384.18" width="57.93" height="57.93"/><rect class="cls-6" x="302.19" y="460.03" width="57.93" height="58.35"/><rect class="cls-6" x="178.07" y="471.03" width="57.93" height="58.35"/><rect class="cls-7" x="426.31" y="285.64" width="58.35" height="58.35"/></g></svg>