<svg xmlns="http://www.w3.org/2000/svg" viewBox="0 0 4465 1024"><defs><style>.cls-1{fill:#fff;}.cls-2{fill:#39b54a;}.cls-3{fill:red;}.cls-4{fill:#fa0;}.cls-5{fill:#ffc800;}.cls-6{fill:#d9e021;}.cls-7{fill:#8cc63f;}</style></defs><title>wr-logo</title><g id="Layer_1" data-name="Layer 1"><rect x="0.93" y="0.93" width="4463.13" height="1022.13"/><path class="cls-1" d="M4463.13,1.87V1022.13H1.87V1.87H4463.13M4465,0H0V1024H4465V0Z"/></g><g id="Layer_2" data-name="Layer 2"><path class="cls-2" d="M2021.19,545.05V520.77h24.11v24.28Zm0,26.58V547.52h24.11v24.11Zm0,80.07V627.41h24.11V651.7Zm26.57-133.4V494h24.29V518.3Zm0,80.07V574.09h24.29v24.28Zm0,79.9V654.16h24.29v24.11Zm26.75-160V494h24.11V518.3Zm0,80.07V574.09h24.11v24.28Zm0,79.9V654.16h24.11v24.11Zm26.57-160V494h24.29V518.3Zm0,80.07V574.09h24.29v24.28Zm0,79.9V654.16h24.29v24.11Zm26.75-133.22V520.77h24.29v24.28Zm0,79.9V600.66h24.29V625Zm0,26.75V627.41h24.29V651.7Z"/><path class="cls-2" d="M1049.28,599.68V563.93h35.5v35.75Zm0,39.13V603.05h35.5v35.76Zm39.13,39.12v-35.5h35.75v35.5Zm39.38-78.51V563.93h35.49v35.49Zm0,39.39V603.05h35.49v35.76Zm39.12,39.12v-35.5h35.75v35.5Zm39.38-196.13V446h35.76V481.8Zm0,39.12V485.16h35.76v35.76Zm0,39.38V524.55h35.76V560.3Zm0,39.12V563.67h35.76v35.75Zm0,39.39V603.05h35.76v35.76Z"/><path class="cls-2" d="M2202.53,442.67v-36H2238v36Zm0,39.13V446H2238V481.8Zm0,39.12v-35.5H2238v35.5Zm0,39.38V524.55H2238V560.3Zm0,39.38V563.93H2238v35.75Zm0,39.13V603.05H2238v35.76Zm0,39.12v-35.5H2238v35.5Zm39.12-235.52V406.66h35.76v35.75Zm0,117.89V524.55h35.76V560.3ZM2281,442.41V406.66h35.49v35.75Zm0,117.89V524.55h35.49V560.3Zm0,39.12V563.67h35.49v35.75Zm39.12-157V406.66h35.75v35.75Zm0,117.89V524.55h35.75V560.3Zm0,78.51V603.05h35.75v35.76Zm39.38-157V446h35.75V481.8Zm0,39.12V485.16h35.75v35.76Zm0,157v-35.5h35.75v35.5Z"/><path class="cls-2" d="M1268.82,571.52V547.43h24.09v24.09Zm0,26.72V574h24.09v24.26Zm0,26.72V600.7h24.09V625Zm0,26.55V627.25h24.09v24.26Zm0,26.55V654h24.09v24.09ZM1295.37,545V520.71h24.09V545Zm0,80V600.7h24.26V625Zm26.72-106.71V494h24.09v24.26Zm0,106.54V600.7h24.09v24.09Zm26.55-80.17V520.36h24.26v24.26Zm0,80.17V600.53h24.26v24.26Zm26.72-53.27V547.26h24.26v24.26Zm0,26.72V574h24.26v24.26Zm0,26.55V600.53h24.26v24.26Zm0,26.72V627.25h24.26v24.26Zm0,26.55V654h24.26v24.09Z"/><path class="cls-2" d="M1419.49,518.25V494h24.08v24.26Zm0,26.72V520.71h24.08V545Zm0,26.55V547.43h24.26v24.09Zm0,26.72V574h24.26v24.26Zm0,26.55V600.53h24.26v24.26Zm0,26.72V627.25h24.26v24.26Zm0,26.55V654h24.26v24.09Zm26.54,0V654h24.27v24.09Zm26.73,0V654H1497v24.09Zm26.54,0V654h24.26v24.09Zm26.73,0V654h24.26v24.09Z"/><path class="cls-2" d="M1570.15,518.25V494h24.09v24.26Zm0,26.72V520.71h24.09V545Zm0,26.55V547.43h24.26v24.09Zm0,26.72V574h24.26v24.26Zm0,26.55V600.53h24.26v24.26Zm0,26.72V627.25h24.26v24.26Zm0,26.55V654h24.26v24.09Zm26.55,0V654H1621v24.09Zm26.72,0V654h24.26v24.09Zm26.55,0V654h24.26v24.09Zm26.72,0V654H1701v24.09Z"/><path class="cls-2" d="M1720.82,518.43V494h24.08v24.44Zm0,26.54V520.71h24.08V545Zm0,26.55V547.43h24.08v24.09Zm0,26.72V574h24.08v24.26Zm0,26.72V600.7h24.08V625Zm0,26.55V627.25h24.08v24.26Zm0,26.55V654h24.08v24.09Zm26.54-159.81V494h24.26v24.26Zm0,80V574h24.26v24.26Zm0,79.82V654h24.26v24.09Zm26.72-159.81V494h24.09v24.26Zm0,80V574h24.09v24.26Zm0,79.82V654h24.09v24.09Zm26.55-159.81V494h24.26v24.26Zm0,80V574h24.26v24.26Zm0,79.82V654h24.26v24.09Zm26.72-159.81V494h24.27v24.26Zm0,159.81V654h24.27v24.09Z"/><path class="cls-2" d="M1871.48,518.25V494h24.09v24.26Zm26.55,0V494h24.26v24.26Zm26.72,0V494h24.08v24.26Zm0,26.72V520.71h24.08V545Zm0,26.55V547.43h24.08v24.09Zm0,26.72V574h24.08v24.26Zm0,26.55V600.53H1949v24.26Zm0,26.72V627.25H1949v24.26Zm0,26.55V654H1949v24.09Zm26.55-159.81V494h24.26v24.26Zm26.72,0V494h24.26v24.26Z"/><path class="cls-2" d="M2425.66,518.43V494h24.09v24.44Zm0,26.54V520.71h24.09V545Zm0,26.55V547.43h24.09v24.09Zm0,26.72V574h24.09v24.26Zm0,26.72V600.7h24.09V625Zm0,26.55V627.25h24.09v24.26Zm0,26.55V654h24.09v24.09Zm26.55-159.81V494h24.26v24.26Zm0,80V574h24.26v24.26Zm0,79.82V654h24.26v24.09Zm26.72-159.81V494H2503v24.26Zm0,80V574H2503v24.26Zm0,79.82V654H2503v24.09Zm26.55-159.81V494h24.26v24.26Zm0,80V574h24.26v24.26Zm0,79.82V654h24.26v24.09Zm26.72-159.81V494h24.26v24.26Zm0,159.81V654h24.26v24.09Z"/><path class="cls-2" d="M2576.32,545V520.71h24.09V545Zm0,26.55V547.43h24.09v24.09Zm0,26.72V574h24.09v24.26Zm0,26.55V600.7h24.09v24.09Zm0,26.72V627.25h24.27v24.26Zm26.55-133.26V494h24.26v24.26Zm0,159.81V654h24.26v24.09Zm26.72-159.81V494h24.09v24.26Zm0,159.81V654h24.27v24.09Zm26.55-159.81V494h24.26v24.26Zm0,159.81V654h24.26v24.09ZM2682.86,545V520.71h24.26V545Zm0,106.54V627.25h24.26v24.26Z"/><path class="cls-2" d="M2727,545V520.71h24.08V545Zm0,26.55V547.43h24.08v24.09Zm0,26.72V574h24.08v24.26Zm0,26.72V600.7h24.08V625Zm0,26.55V627.25h24.08v24.26Zm26.55-133.26V494h24.26v24.26Zm0,159.81V654h24.26v24.09Zm26.72-159.81V494h24.08v24.26Zm0,159.81V654h24.08v24.09Zm26.55-159.81V494h24.26v24.26Zm0,159.81V654h24.26v24.09ZM2833.53,545V520.71h24.26V545Zm0,26.55V547.26h24.26v24.26Zm0,26.72V574h24.26v24.26Zm0,26.55V600.53h24.26v24.26Zm0,26.72V627.25h24.26v24.26Z"/><path class="cls-2" d="M2877.65,518.25V494h24.09v24.26Zm0,26.72V520.71h24.09V545Zm0,26.55V547.43h24.09v24.09Zm26.55,26.72V574h24.26v24.26Zm0,26.72V600.7h24.26V625Zm26.72,26.55V627.25h24.26v24.26Zm0,26.55V654H2955v24.09Zm26.55-79.82V574h24.26v24.26Zm0,26.55V600.53h24.26v24.26Zm26.72-106.54V494h24.26v24.26Zm0,26.72V520.71h24.26V545Zm0,26.55V547.26h24.26v24.26Z"/><path class="cls-2" d="M3028.32,518.43V494h24.08v24.44Zm0,26.54V520.71h24.08V545Zm0,26.55V547.43h24.08v24.09Zm0,26.72V574h24.08v24.26Zm0,26.72V600.7h24.08V625Zm0,26.55V627.25h24.08v24.26Zm0,26.55V654h24.08v24.09Zm26.54-159.81V494h24.27v24.26Zm0,80V574h24.27v24.26Zm0,79.82V654h24.27v24.09Zm26.73-159.81V494h24.08v24.26Zm0,80V574h24.08v24.26Zm0,79.82V654h24.08v24.09Zm26.54-159.81V494h24.27v24.26Zm0,80V574h24.27v24.26Zm0,79.82V654h24.27v24.09Zm26.73-159.81V494h24.26v24.26Zm0,159.81V654h24.26v24.09Z"/><path class="cls-2" d="M3179,518.43V494h24.09v24.44Zm0,26.54V520.71h24.09V545Zm0,26.55V547.43h24.09v24.09Zm0,26.72V574h24.09v24.26Zm0,26.72V600.7h24.09V625Zm0,26.55V627.25h24.09v24.26Zm0,26.55V654h24.09v24.09Zm26.55-159.81V494h24.26v24.26Zm0,80V574h24.26v24.26Zm26.72-80V494h24.09v24.26Zm0,80V574h24.09v24.26Zm0,26.55V600.53h24.09v24.26Zm26.55-106.54V494h24.26v24.26Zm0,80V574h24.26v24.26Zm0,53.27V627.25h24.26v24.26ZM3285.52,545V520.71h24.26V545Zm0,26.55V547.26h24.26v24.26Zm0,106.54V654h24.26v24.09Z"/><path class="cls-2" d="M3329.65,518.25V494h24.08v24.26Zm0,26.72V520.71h24.08V545Zm0,26.55V547.43h24.26v24.09Zm26.54,26.72V574h24.26v24.26Zm26.73,26.55V600.53H3407v24.26Zm0,26.72V627.25H3407v24.26Zm0,26.55V654h24.26v24.09Zm26.54-79.82V574h24.26v24.26Zm26.73-80V494h24.26v24.26Zm0,26.72V520.71h24.26V545Zm0,26.55V547.26h24.26v24.26Z"/><rect class="cls-3" x="1004.55" y="346" width="35.5" height="36.01"/><rect class="cls-4" x="1026.61" y="410.5" width="35.5" height="35.75"/><rect class="cls-5" x="1044.38" y="463.98" width="35.5" height="35.5"/><rect class="cls-6" x="1124.11" y="510.45" width="35.5" height="35.75"/><rect class="cls-6" x="1048.06" y="517.19" width="35.5" height="35.75"/><rect class="cls-7" x="1200.16" y="403.6" width="35.75" height="35.75"/></g></svg>