<svg xmlns="http://www.w3.org/2000/svg" viewBox="0 0 4465 1024"><defs><style>.cls-1{fill:#39b54a;}.cls-2{fill:red;}.cls-3{fill:#fa0;}.cls-4{fill:#ffc800;}.cls-5{fill:#d9e021;}.cls-6{fill:#8cc63f;}</style></defs><title>wr-logo</title><g id="Layer_1" data-name="Layer 1"><rect x="-44" y="-10.09" width="4553" height="1044.18"/></g><g id="Layer_2" data-name="Layer 2"><path class="cls-1" d="M1886.52,566V526.27H1926V566Zm0,43.51V570.06H1926v39.48Zm0,131.1V700.88H1926v39.76ZM1930,522.23V482.47h39.76v39.76Zm0,131.1V613.57h39.76v39.76Zm0,130.82V744.67h39.76v39.48Zm43.79-261.92V482.47h39.48v39.76Zm0,131.1V613.57h39.48v39.76Zm0,130.82V744.67h39.48v39.48Zm43.51-261.92V482.47h39.77v39.76Zm0,131.1V613.57h39.77v39.76Zm0,130.82V744.67h39.77v39.48ZM2061.13,566V526.27h39.76V566Zm0,130.81V657.08h39.76v39.76Zm0,43.8V700.88h39.76v39.76Z"/><path class="cls-1" d="M295.23,655.48V596.94h58.12v58.54Zm0,64V661h58.12v58.54Zm64.06,64.06V725.47h58.54v58.12Zm64.48-128.54V596.94h58.12v58.11Zm0,64.48V661h58.12v58.54Zm64.05,64.06V725.47h58.55v58.12ZM552.3,462.46V403.92h58.54v58.54Zm0,64.06V468h58.54v58.54Zm0,64.48V532.46h58.54V591Zm0,64V596.51h58.54v58.54Zm0,64.48V661h58.54v58.54Z"/><path class="cls-1" d="M2183.43,398.41v-59h58.12v59Zm0,64V403.92h58.12v58.54Zm0,64.06V468.4h58.12v58.12Zm0,64.48V532.46h58.12V591Zm0,64.48V596.94h58.12v58.54Zm0,64V661h58.12v58.54Zm0,64.06V725.47h58.12v58.12ZM2247.49,398V339.44H2306V398Zm0,193V532.46H2306V591ZM2312,398V339.44h58.11V398Zm0,193V532.46h58.11V591Zm0,64V596.51h58.11v58.54ZM2376,398V339.44h58.54V398Zm0,193V532.46h58.54V591Zm0,128.53V661h58.54v58.54Zm64.48-257.07V403.92H2499v58.54Zm0,64.06V468H2499v58.54Zm0,257.07V725.47H2499v58.12Z"/><path class="cls-1" d="M654.68,609.37V569.93h39.44v39.44Zm0,43.75V613.4h39.44v39.72Zm0,43.75V657.15h39.44v39.72Zm0,43.47V700.61h39.44v39.73Zm0,43.46V744.36h39.44V783.8Zm43.47-217.9V526.18h39.43V565.9Zm0,131V657.15h39.72v39.72ZM741.9,522.15V482.43h39.44v39.72Zm0,174.43V657.15h39.44v39.43Zm43.47-131.25V525.6h39.72v39.73Zm0,131.25V656.86h39.72v39.72Zm43.75-87.21V569.64h39.72v39.73Zm0,43.75V613.4h39.72v39.72Zm0,43.46V656.86h39.72v39.72Zm0,43.76V700.61h39.72v39.73Zm0,43.46V744.36h39.72V783.8Z"/><path class="cls-1" d="M901.37,522.15V482.43H940.8v39.72Zm0,43.75V526.18H940.8V565.9Zm0,43.47V569.93h39.72v39.44Zm0,43.75V613.4h39.72v39.72Zm0,43.46V656.86h39.72v39.72Zm0,43.76V700.61h39.72v39.73Zm0,43.46V744.36h39.72V783.8Zm43.46,0V744.36h39.72V783.8Zm43.75,0V744.36h39.73V783.8Zm43.47,0V744.36h39.72V783.8Zm43.75,0V744.36h39.72V783.8Z"/><path class="cls-1" d="M1148.05,522.15V482.43h39.43v39.72Zm0,43.75V526.18h39.43V565.9Zm0,43.47V569.93h39.72v39.44Zm0,43.75V613.4h39.72v39.72Zm0,43.46V656.86h39.72v39.72Zm0,43.76V700.61h39.72v39.73Zm0,43.46V744.36h39.72V783.8Zm43.46,0V744.36h39.72V783.8Zm43.75,0V744.36H1275V783.8Zm43.47,0V744.36h39.72V783.8Zm43.75,0V744.36h39.72V783.8Z"/><path class="cls-1" d="M1394.73,522.44v-40h39.43v40Zm0,43.46V526.18h39.43V565.9Zm0,43.47V569.93h39.43v39.44Zm0,43.75V613.4h39.43v39.72Zm0,43.75V657.15h39.43v39.72Zm0,43.47V700.61h39.43v39.73Zm0,43.46V744.36h39.43V783.8Zm43.46-261.65V482.43h39.72v39.72Zm0,131V613.4h39.72v39.72Zm0,130.68V744.36h39.72V783.8Zm43.75-261.65V482.43h39.44v39.72Zm0,131V613.4h39.44v39.72Zm0,130.68V744.36h39.44V783.8Zm43.47-261.65V482.43h39.72v39.72Zm0,131V613.4h39.72v39.72Zm0,130.68V744.36h39.72V783.8Zm43.75-261.65V482.43h39.72v39.72Zm0,261.65V744.36h39.72V783.8Z"/><path class="cls-1" d="M1641.41,522.15V482.43h39.43v39.72Zm43.46,0V482.43h39.72v39.72Zm43.75,0V482.43h39.44v39.72Zm0,43.75V526.18h39.44V565.9Zm0,43.47V569.93h39.44v39.44Zm0,43.75V613.4h39.44v39.72Zm0,43.46V656.86h39.73v39.72Zm0,43.76V700.61h39.73v39.73Zm0,43.46V744.36h39.73V783.8Zm43.47-261.65V482.43h39.72v39.72Zm43.75,0V482.43h39.72v39.72Z"/><path class="cls-1" d="M2548.76,522.44v-40h39.43v40Zm0,43.46V526.18h39.43V565.9Zm0,43.47V569.93h39.43v39.44Zm0,43.75V613.4h39.43v39.72Zm0,43.75V657.15h39.43v39.72Zm0,43.47V700.61h39.43v39.73Zm0,43.46V744.36h39.43V783.8Zm43.46-261.65V482.43H2632v39.72Zm0,131V613.4H2632v39.72Zm0,130.68V744.36H2632V783.8ZM2636,522.15V482.43h39.43v39.72Zm0,131V613.4h39.43v39.72Zm0,130.68V744.36h39.43V783.8Zm43.46-261.65V482.43h39.72v39.72Zm0,131V613.4h39.72v39.72Zm0,130.68V744.36h39.72V783.8Zm43.75-261.65V482.43h39.73v39.72Zm0,261.65V744.36h39.73V783.8Z"/><path class="cls-1" d="M2795.44,565.9V526.18h39.43V565.9Zm0,43.47V569.93h39.43v39.44Zm0,43.75V613.4h39.43v39.72Zm0,43.46V657.15h39.43v39.43Zm0,43.76V700.61h39.72v39.73Zm43.46-218.19V482.43h39.73v39.72Zm0,261.65V744.36h39.73V783.8Zm43.76-261.65V482.43h39.43v39.72Zm0,261.65V744.36h39.72V783.8Zm43.46-261.65V482.43h39.72v39.72Zm0,261.65V744.36h39.72V783.8Zm43.75-217.9V526.18h39.73V565.9Zm0,174.44V700.61h39.73v39.73Z"/><path class="cls-1" d="M3042.12,565.9V526.18h39.44V565.9Zm0,43.47V569.93h39.44v39.44Zm0,43.75V613.4h39.44v39.72Zm0,43.75V657.15h39.44v39.72Zm0,43.47V700.61h39.44v39.73Zm43.47-218.19V482.43h39.72v39.72Zm0,261.65V744.36h39.72V783.8Zm43.75-261.65V482.43h39.43v39.72Zm0,261.65V744.36h39.43V783.8Zm43.46-261.65V482.43h39.73v39.72Zm0,261.65V744.36h39.73V783.8Zm43.75-217.9V526.18h39.73V565.9Zm0,43.47V569.64h39.73v39.73Zm0,43.75V613.4h39.73v39.72Zm0,43.46V656.86h39.73v39.72Zm0,43.76V700.61h39.73v39.73Z"/><path class="cls-1" d="M3288.8,522.15V482.43h39.44v39.72Zm0,43.75V526.18h39.44V565.9Zm0,43.47V569.93h39.44v39.44Zm43.47,43.75V613.4H3372v39.72Zm0,43.75V657.15H3372v39.72ZM3376,740.34V700.61h39.72v39.73Zm0,43.46V744.36h39.43V783.8Zm43.46-130.68V613.4h39.73v39.72Zm0,43.46V656.86h39.73v39.72Zm43.76-174.43V482.43H3503v39.72Zm0,43.75V526.18H3503V565.9Zm0,43.47V569.64H3503v39.73Z"/><path class="cls-1" d="M3535.48,522.44v-40h39.44v40Zm0,43.46V526.18h39.44V565.9Zm0,43.47V569.93h39.44v39.44Zm0,43.75V613.4h39.44v39.72Zm0,43.75V657.15h39.44v39.72Zm0,43.47V700.61h39.44v39.73Zm0,43.46V744.36h39.44V783.8ZM3579,522.15V482.43h39.72v39.72Zm0,131V613.4h39.72v39.72Zm0,130.68V744.36h39.72V783.8Zm43.75-261.65V482.43h39.43v39.72Zm0,131V613.4h39.43v39.72Zm0,130.68V744.36h39.43V783.8Zm43.46-261.65V482.43h39.73v39.72Zm0,131V613.4h39.73v39.72Zm0,130.68V744.36h39.73V783.8Zm43.76-261.65V482.43h39.72v39.72Zm0,261.65V744.36h39.72V783.8Z"/><path class="cls-1" d="M3782.16,522.44v-40h39.44v40Zm0,43.46V526.18h39.44V565.9Zm0,43.47V569.93h39.44v39.44Zm0,43.75V613.4h39.44v39.72Zm0,43.75V657.15h39.44v39.72Zm0,43.47V700.61h39.44v39.73Zm0,43.46V744.36h39.44V783.8Zm43.47-261.65V482.43h39.72v39.72Zm0,131V613.4h39.72v39.72Zm43.75-131V482.43h39.43v39.72Zm0,131V613.4h39.43v39.72Zm0,43.46V656.86h39.43v39.72Zm43.46-174.43V482.43h39.73v39.72Zm0,131V613.4h39.73v39.72Zm0,87.22V700.61h39.73v39.73ZM3956.6,565.9V526.18h39.72V565.9Zm0,43.47V569.64h39.72v39.73Zm0,174.43V744.36h39.72V783.8Z"/><path class="cls-1" d="M4028.84,522.15V482.43h39.44v39.72Zm0,43.75V526.18h39.44V565.9Zm0,43.47V569.93h39.73v39.44Zm43.47,43.75V613.4H4112v39.72Zm43.75,43.46V656.86h39.44v39.72Zm0,43.76V700.61h39.44v39.73Zm0,43.46V744.36h39.72V783.8Zm43.46-130.68V613.4h39.73v39.72Zm43.76-131V482.43H4243v39.72Zm0,43.75V526.18H4243V565.9Zm0,43.47V569.64H4243v39.73Z"/><rect class="cls-2" x="222" y="240.12" width="58.12" height="58.96"/><rect class="cls-3" x="258.12" y="345.74" width="58.12" height="58.54"/><rect class="cls-4" x="287.21" y="433.29" width="58.12" height="58.12"/><rect class="cls-5" x="417.75" y="509.38" width="58.12" height="58.54"/><rect class="cls-5" x="293.23" y="520.42" width="58.12" height="58.54"/><rect class="cls-6" x="542.27" y="334.43" width="58.54" height="58.54"/></g></svg>